<?xml version="1.0" encoding="UTF-8"?>
<svg width="78px" height="40px" viewBox="0 0 78 40" version="1.1" xmlns="http://www.w3.org/2000/svg">
    <g stroke="none" stroke-width="1" fill="none" fill-rule="evenodd">
        <g transform="translate(-370.000000, -202.000000)">
            <g transform="translate(0.000000, 149.000000)">
                <g transform="translate(370.000000, 53.000000)">
                    <rect x="0" y="0" width="78" height="40"></rect>
                    <path d="M20.0393055,9.6589684 C20.0393055,8.3629621 19.5346073,7.14445627 18.6183061,6.22791872 C17.7017685,5.31161745 16.4832627,4.80691928 15.1874927,4.80691928 L4.80691928,4.80691928 L4.80691928,9.6589684 L4.80691928,14.5110175 L15.1874927,14.5110175 C16.4832627,14.5110175 17.7017685,14.0063194 18.6183061,13.0897818 C19.5346073,12.1734805 20.0393055,10.9549747 20.0393055,9.6589684 Z M24.8464611,9.6589684 C24.8464611,14.9935052 20.5220294,19.3179368 15.1874927,19.3179368 L3.92700543,19.3179368 L1.76030027,19.3179368 L6.39488462e-14,19.3179368 L6.39488462e-14,9.6589684 L6.39488462e-14,-8.52651283e-14 L15.1874927,-8.52651283e-14 C20.5220294,-8.52651283e-14 24.8464611,4.32443161 24.8464611,9.6589684 Z M75.0778697,9.02809569 C75.6298242,9.58028653 76.0636378,10.2239185 76.3672601,10.9412704 C76.6817513,11.6850858 76.8412416,12.4737949 76.8412416,13.2856595 C76.8412416,14.0972879 76.6817513,14.8862332 76.3672601,15.6300487 C76.0636378,16.3474006 75.6298242,16.9910325 75.0778697,17.5432233 C74.5256788,18.0954142 73.8818106,18.5292278 73.1644587,18.8326138 C72.4206432,19.147105 71.6319342,19.3068316 70.8200695,19.3068316 L54.4095817,19.3068316 C53.0885295,19.3068316 52.0174636,18.2355294 52.0174636,16.9144772 C52.0174636,15.593425 53.0885295,14.5223591 54.4095817,14.5223591 L70.8200695,14.5223591 C71.5022154,14.5223591 72.0567691,13.9675691 72.0567691,13.2856595 C72.0567691,12.6037499 71.5022154,12.04896 70.8200695,12.04896 L70.8200695,12.0567573 L58.0402896,12.0567573 C57.2281887,12.0567573 56.4392434,11.897267 55.6951916,11.5825395 C54.9776034,11.2789172 54.3339715,10.8451036 53.7815444,10.2926765 C53.2291173,9.74048567 52.7953037,9.09661745 52.4916814,8.37902927 C52.1769539,7.63497752 52.0174636,6.84603221 52.0174636,6.03393126 C52.0174636,5.2220666 52.1769539,4.43288501 52.4916814,3.68883326 C52.7953037,2.97148136 53.2291173,2.32761315 53.7815444,1.77518603 C54.3339715,1.22275891 54.9776034,0.788945314 55.6951916,0.485559335 C56.4392434,0.170831825 57.2281887,0.01110525 58.0402896,0.01110525 L73.1878506,0.01110525 C74.5089028,0.01110525 75.580205,1.08217117 75.580205,2.40345964 C75.580205,3.72451183 74.5089028,4.79557775 73.1878506,4.79557775 L58.0402896,4.79557775 C57.3571986,4.79557775 56.8019361,5.35107653 56.8019361,6.03393126 C56.8019361,6.716786 57.3571986,7.27228478 58.0402896,7.27228478 L70.8200695,7.27228478 L70.8200695,7.26448748 C71.6319342,7.26448748 72.4206432,7.42397777 73.1644587,7.73870528 C73.8818106,8.04209126 74.5256788,8.47590486 75.0778697,9.02809569 Z M46.0253542,-8.52651283e-14 L50.810063,-8.52651283e-14 L50.810063,16.9144772 C50.810063,17.8820516 50.2271555,18.7544044 49.333301,19.1246582 C49.0374761,19.2472885 48.7262928,19.3068316 48.4181812,19.3068316 C47.7958146,19.3068316 47.1838445,19.0636975 46.7261664,18.6060194 L30.7705212,7.07309913 L30.7705212,19.3179368 L25.986285,19.3179368 L25.986285,2.40345964 C25.986285,1.4358852 26.5691925,0.563532367 27.463047,0.193278607 C28.3569015,-0.176975154 29.3859092,0.0276449841 30.0699454,0.71191741 L46.0253542,12.2448377 L46.0253542,-8.52651283e-14 Z M16.2860145,31.1610716 L12.4882553,31.1610716 C12.2796184,31.1610716 12.1005167,31.0923136 11.9703254,30.9623585 C11.8259571,30.8179903 11.7555451,30.6353443 11.7555451,30.4042606 L11.7555451,25.8898584 C11.7555451,25.6566481 11.8252483,25.4690403 11.9625281,25.3319968 C12.1052423,25.1992063 12.2810361,25.1332837 12.4882553,25.1332837 C12.6952383,25.1332837 12.871032,25.1992063 13.0104383,25.3286888 C13.1507898,25.4690403 13.220493,25.6566481 13.220493,25.8898584 L13.220493,29.840492 L15.4828923,29.840492 L15.4828923,25.8898584 C15.4828923,25.6566481 15.5525955,25.4690403 15.6898753,25.3319968 C15.8323533,25.1992063 16.008147,25.1332837 16.21513,25.1332837 C16.4223492,25.1332837 16.5981429,25.1992063 16.7375493,25.3286888 C16.878137,25.4690403 16.9478402,25.6566481 16.9478402,25.8898584 L16.9478402,29.840492 L17.0187248,29.840492 C17.2271254,29.840492 17.4062271,29.9090137 17.5361821,30.0392051 C17.6807867,30.1835733 17.7511987,30.3662192 17.7511987,30.5970667 L17.7511987,31.7057014 C17.7511987,31.9386754 17.6814955,32.1262832 17.5442157,32.2633267 C17.4012652,32.3965897 17.2257077,32.4625124 17.0187248,32.4625124 C16.8115055,32.4625124 16.6354755,32.3965897 16.4963054,32.2663984 C16.3557177,32.1267558 16.2860145,31.9389117 16.2860145,31.7057014 L16.2860145,31.1610716 Z M23.4252253,30.4524621 C23.4252253,30.6854361 23.3555222,30.873044 23.2182424,31.0100875 C23.0752918,31.1433505 22.8994981,31.2090368 22.6925151,31.2090368 C22.4857684,31.2090368 22.310211,31.1433505 22.1705684,31.0136317 C22.0299806,30.873044 21.9602775,30.6854361 21.9602775,30.4524621 L21.9602775,27.8153197 L19.5743027,30.8936005 C19.4129221,31.1029463 19.2078294,31.2090368 18.9656405,31.2090368 C18.7586575,31.2090368 18.5831001,31.1433505 18.4434574,31.0136317 C18.3026334,30.873044 18.2329303,30.6854361 18.2329303,30.4524621 L18.2329303,25.8898584 C18.2329303,25.6566481 18.3026334,25.468804 18.4399132,25.3319968 C18.5826275,25.1992063 18.7584212,25.1332837 18.9656405,25.1332837 C19.1726234,25.1332837 19.3484172,25.1992063 19.4878235,25.3286888 C19.6284112,25.4690403 19.6981144,25.6566481 19.6981144,25.8898584 L19.6981144,28.5636245 L22.0833803,25.4491926 C22.245706,25.2396105 22.4505624,25.1332837 22.6925151,25.1332837 C22.8997344,25.1332837 23.0757644,25.1992063 23.2149344,25.3286888 C23.3555222,25.468804 23.4252253,25.6566481 23.4252253,25.8898584 L23.4252253,30.4524621 Z M26.6591214,27.1775003 L26.6239154,27.1656862 C26.561537,27.1578889 26.5201876,27.1526907 26.4840365,27.1526907 C26.2191645,27.1526907 25.9963506,27.2429504 25.803072,27.4291405 C25.6088483,27.6236005 25.5136267,27.8589373 25.5136267,28.146965 C25.5136267,28.4383006 25.6109748,28.6795444 25.803072,28.8645532 C25.9911524,29.0455451 26.21373,29.133442 26.4840365,29.133442 C26.523023,29.133442 26.5818572,29.1228093 26.6591214,29.1020165 L26.6591214,27.1775003 Z M28.1028039,29.1124129 C28.1578576,29.1280075 28.1940087,29.133442 28.2351218,29.133442 C28.505192,29.133442 28.7280058,29.0455451 28.9160862,28.8645532 C29.1081834,28.6793081 29.2055316,28.4380643 29.2055316,28.146965 C29.2055316,27.8589373 29.11031,27.6238368 28.9144323,27.4277228 C28.7225714,27.2429504 28.4999938,27.1526907 28.2351218,27.1526907 C28.192591,27.1526907 28.1427355,27.1600154 28.0928801,27.1671039 L28.0602732,27.1779729 L28.0602732,29.1034342 L28.1028039,29.1124129 Z M28.0919349,30.4556756 C28.0914624,30.6869956 28.0222318,30.873422 27.8854245,31.0102292 C27.7420014,31.143256 27.5662077,31.2089423 27.3596973,31.2089423 C27.1527143,31.2089423 26.9771569,31.143256 26.8375142,31.0135372 C26.6973991,30.873422 26.6276959,30.6869956 26.6272233,30.4556756 C26.5839837,30.4630003 26.5364911,30.4700888 26.4854542,30.476941 C26.3623513,30.4932444 26.2593324,30.5019868 26.1867938,30.5019868 C25.5620645,30.5019868 25.0349195,30.2657049 24.6195359,29.7999933 C24.2093505,29.3560195 24.000241,28.7991031 24.000241,28.146965 C24.000241,27.4964809 24.2032072,26.9374379 24.6034687,26.4861394 C25.0188523,26.0201915 25.5516681,25.7839096 26.1867938,25.7839096 C26.2572059,25.7839096 26.3571531,25.7921794 26.4920701,25.8089554 C26.541453,25.8124997 26.5872917,25.8176979 26.6291136,25.8233686 C26.6414003,25.6211113 26.7101583,25.4559503 26.83397,25.3319023 C26.9766843,25.1991118 27.152478,25.1334254 27.3596973,25.1334254 C27.5666802,25.1334254 27.7422377,25.1991118 27.8818803,25.3285943 C28.009,25.4554777 28.0779943,25.6211113 28.090281,25.8233686 C28.133048,25.8174616 28.1812495,25.8122634 28.2339404,25.8084829 C28.3620052,25.7921794 28.4619524,25.7839096 28.5323644,25.7839096 C29.1677265,25.7839096 29.7005422,26.0201915 30.1156895,26.4859031 C30.5157148,26.9374379 30.7189173,27.4962446 30.7189173,28.146965 C30.7189173,28.7960314 30.5128794,29.3524753 30.1069471,29.8009384 C29.6922723,30.2657049 29.162292,30.5019868 28.5323644,30.5019868 C28.4598259,30.5019868 28.356807,30.4932444 28.2339404,30.476941 C28.1826672,30.4700888 28.1354108,30.4630003 28.0919349,30.4556756 Z M32.7669144,27.9447313 L33.4561487,27.9447313 C33.6711653,27.9447313 33.8365626,27.8771547 33.9622646,27.7384572 C34.0924559,27.6080296 34.1534167,27.4409783 34.1534167,27.2231263 C34.1534167,27.0064558 34.0915108,26.8363328 33.9643911,26.702361 C33.8360901,26.567444 33.6699839,26.5019939 33.4561487,26.5019939 L32.7669144,26.5019939 L32.7669144,27.9447313 Z M32.0344405,31.208966 C31.8274575,31.208966 31.6519,31.1432796 31.5122574,31.0135608 C31.3716697,30.8732094 31.3019665,30.6856015 31.3019665,30.4523913 L31.3019665,25.937989 C31.3019665,25.4503031 31.5708553,25.1816506 32.0585412,25.1816506 L33.4804858,25.1816506 C34.1056877,25.1816506 34.629761,25.371385 35.0380562,25.7456555 C35.4610008,26.1343393 35.6668023,26.6203712 35.6668023,27.2311599 C35.6668023,27.8374593 35.4522584,28.3374318 35.0293137,28.7176094 C34.6266893,29.0857367 34.1356955,29.2650746 33.5286873,29.2650746 L32.7669144,29.2650746 L32.7669144,30.4523913 C32.7669144,30.6856015 32.6972112,30.8732094 32.5599314,31.0102529 C32.4169809,31.1432796 32.2411871,31.208966 32.0344405,31.208966 Z M37.8956496,26.9636179 C37.6624394,27.2797631 37.5440621,27.686168 37.5440621,28.1710185 C37.5440621,28.6686282 37.659604,29.0776322 37.8880886,29.3873978 C38.137366,29.7248084 38.4761943,29.888788 38.9239485,29.888788 C39.3714665,29.888788 39.710531,29.7248084 39.9600447,29.3871615 C40.1882931,29.0776322 40.3038349,28.6686282 40.3038349,28.1710185 C40.3038349,27.686168 40.1854577,27.2797631 39.9520111,26.9631453 C39.6965904,26.6205366 39.3601249,26.4537215 38.9239485,26.4537215 C38.4875358,26.4537215 38.1510704,26.6205366 37.8956496,26.9636179 Z M41.8174569,28.1710185 C41.8174569,29.0379368 41.5492769,29.7753727 41.0209505,30.3627695 C40.4767933,30.956546 39.7714918,31.2575691 38.9239485,31.2575691 C38.0816035,31.2575691 37.3791374,30.956546 36.8359252,30.3637147 C36.3016918,29.7791532 36.0304402,29.0414811 36.0304402,28.1710185 C36.0304402,27.2925223 36.3016918,26.5546139 36.8366341,25.9783223 C37.3786648,25.3857273 38.0811309,25.0851767 38.9239485,25.0851767 C39.7592051,25.0851767 40.4593084,25.391398 41.0044108,25.9955709 C41.5511671,26.5926553 41.8174569,27.3043364 41.8174569,28.1710185 Z M43.9342357,27.4467908 L44.4309002,27.4467908 C44.595825,27.4467908 44.718219,27.40426 44.8160398,27.3130552 C44.908426,27.226576 44.9514293,27.1086714 44.9514293,26.9418563 C44.9514293,26.7989058 44.906772,26.6987222 44.8063522,26.6169687 C44.7097129,26.5397045 44.58661,26.5018994 44.4309002,26.5018994 L43.9342357,26.5018994 L43.9342357,27.4467908 Z M45.376973,29.271596 C45.376973,29.0367318 45.2952195,28.7671341 44.6558406,28.7671341 L43.9342357,28.7671341 L43.9342357,29.8405629 L44.7520074,29.8405629 C44.9400878,29.8405629 45.0882365,29.7907074 45.2042509,29.688161 C45.3197928,29.5915217 45.376973,29.4521154 45.376973,29.271596 Z M46.8903587,29.2876632 C46.8903587,29.8835662 46.7025146,30.3511681 46.3320245,30.6784185 C45.9778379,30.998108 45.4946414,31.1611425 44.8966119,31.1611425 L43.2419296,31.1611425 C43.0290396,31.1611425 42.8463937,31.096165 42.6987175,30.9685727 C42.5474971,30.8272761 42.4692878,30.6387232 42.4692878,30.4201624 L42.4692878,25.9137937 C42.4692878,25.6871994 42.5425352,25.5038446 42.687376,25.3691639 C42.8319805,25.2434619 43.0146264,25.1815561 43.2338961,25.1815561 L44.7761081,25.1815561 C45.2387481,25.1815561 45.6276681,25.3226164 45.9322355,25.6009565 C46.2528701,25.8870939 46.4163772,26.2656175 46.4163772,26.7249495 C46.4163772,27.2213778 46.2311322,27.6041545 45.8651315,27.8664275 C46.1087381,27.9510164 46.3225733,28.0932581 46.5030926,28.29268 C46.7599311,28.5759821 46.8903587,28.9107935 46.8903587,29.2876632 Z M49.2240443,28.6676594 L50.3922221,28.6676594 L49.8142765,26.8650647 L49.2240443,28.6676594 Z M47.8798365,31.2091077 C47.69341,31.2091077 47.5244685,31.1441302 47.3770286,31.016538 C47.2319515,30.8913085 47.1551598,30.7185865 47.1551598,30.5165654 C47.1551598,30.4480437 47.1650837,30.3792856 47.1842225,30.3121816 L47.2250993,30.1933318 L48.8341791,25.8367658 C49.0246223,25.3375021 49.3549445,25.085153 49.8156942,25.085153 C50.2880217,25.085153 50.6275589,25.3460083 50.7979181,25.8393649 L52.371792,30.2075087 C52.3956564,30.2627987 52.416213,30.3369912 52.4266094,30.409766 L52.4303899,30.4336305 C52.4381872,30.4782878 52.4438579,30.5168017 52.4438579,30.5486998 C52.4438579,30.7389067 52.3729734,30.9005235 52.2333308,31.0297697 C52.1047934,31.1486196 51.9455394,31.2091077 51.7593492,31.2091077 C51.3992556,31.2091077 51.1537587,31.0330777 51.0490858,30.7003928 L50.8369046,30.0362043 L48.7937749,30.0362043 L48.5815938,30.6933043 C48.4757395,31.0302423 48.2330779,31.2091077 47.8798365,31.2091077 Z M54.5666855,26.702172 C54.457287,26.798575 54.4019971,26.9417618 54.4019971,27.1267706 C54.4019971,27.3053997 54.4582322,27.4492954 54.5697572,27.5542045 C54.6822274,27.6602951 54.8291948,27.7115683 55.0189291,27.7115683 L55.7161971,27.7115683 L55.7161971,26.5500064 L55.0189291,26.5500064 C54.8306124,26.5500064 54.6827,26.5996256 54.5666855,26.702172 Z M52.8484435,30.4602358 C52.8484435,30.3090154 52.9162564,30.156141 53.0440849,30.0183886 L54.2517218,28.725454 C53.887375,28.6351943 53.5953306,28.4837376 53.3633018,28.2658857 C53.048338,27.9681705 52.8886114,27.5849212 52.8886114,27.1267706 C52.8886114,25.8359625 53.6054907,25.1814616 55.0189291,25.1814616 L56.4326038,25.1814616 C56.9153278,25.1814616 57.1811449,25.4503504 57.1811449,25.9380362 L57.1811449,30.4524385 C57.1811449,30.6854125 57.1116781,30.8730203 56.974162,31.0100638 C56.8312114,31.1433268 56.655654,31.2090132 56.448671,31.2090132 C56.2419243,31.2090132 56.0663669,31.1433268 55.9267243,31.0136081 C55.7859002,30.8730203 55.7161971,30.6854125 55.7161971,30.4524385 L55.7161971,29.051523 L54.1475214,30.9531199 C54.0686033,31.0540123 53.9544791,31.1135553 53.8757972,31.1492339 C53.5575255,31.2756447 53.2661899,31.2031062 53.0523548,30.9748578 C52.9188555,30.8321436 52.8484435,30.6542233 52.8484435,30.4602358 Z M61.9823226,30.8936477 C61.8207057,31.1029935 61.6158493,31.2090841 61.3736604,31.2090841 C61.1666774,31.2090841 60.9911199,31.1433977 60.8514773,31.013679 C60.7106533,30.8730912 60.6409501,30.6854834 60.6409501,30.4525094 L60.6409501,25.8899056 C60.6409501,25.6564591 60.7106533,25.4688513 60.8479331,25.3318077 C60.9906474,25.1990173 61.1664411,25.1333309 61.3736604,25.1333309 C61.5806433,25.1333309 61.7564371,25.1990173 61.8958434,25.3287361 C62.0364311,25.4690875 62.105898,25.6564591 62.105898,25.8899056 L62.105898,28.5636718 L64.4914002,25.4492399 C64.6537259,25.2394215 64.8585823,25.1333309 65.100535,25.1333309 C65.3077542,25.1333309 65.483548,25.1990173 65.6229543,25.3287361 C65.7635421,25.4688513 65.8332452,25.6564591 65.8332452,25.8899056 L65.8332452,30.4525094 C65.8332452,30.6854834 65.7635421,30.8730912 65.6262623,31.0101347 C65.4830754,31.1433977 65.307518,31.2090841 65.100535,31.2090841 C64.8937883,31.2090841 64.7182309,31.1433977 64.5785883,31.013679 C64.4380005,30.8730912 64.3682973,30.6854834 64.3682973,30.4525094 L64.3682973,27.8153669 L61.9823226,30.8936477 Z M3.38003642,38.0141686 C3.38003642,37.7793044 3.2980466,37.5097068 2.65866774,37.5097068 L1.93729905,37.5097068 L1.93729905,38.5826629 L2.75483448,38.5826629 C2.94315116,38.5826629 3.09106364,38.5330437 3.20731434,38.4307337 C3.3228562,38.3340944 3.38003642,38.1949243 3.38003642,38.0141686 Z M4.27200065,36.6175062 C4.68454888,36.9421576 4.89318581,37.4173205 4.89318581,38.0302358 C4.89318581,38.6261388 4.70534168,39.0937407 4.33508792,39.4207549 C3.98066505,39.7409169 3.49746853,39.9034788 2.89967529,39.9034788 L1.24499304,39.9034788 C1.03186675,39.9034788 0.849220831,39.8387376 0.701780916,39.7111454 C0.550324208,39.5696125 0.472114894,39.3810595 0.472114894,39.162735 L0.472114894,34.6563664 C0.472114894,34.429772 0.54559857,34.2466535 0.68996682,34.111264 C0.835043916,33.9860346 1.01768984,33.9238924 1.23695945,33.9238924 L3.63073153,33.9238924 C3.85236397,33.9238924 4.03028425,33.994777 4.15976674,34.1341833 C4.27459975,34.2695729 4.33107113,34.4276455 4.33107113,34.6084011 C4.33107113,34.7908108 4.27247322,34.9432126 4.15220572,35.0741128 C4.02697631,35.2180085 3.85071,35.2926735 3.63073153,35.2926735 L1.93729905,35.2926735 L1.93729905,36.1888909 L2.75483448,36.1888909 C3.39114167,36.1888909 3.90151061,36.3332591 4.27200065,36.6175062 Z M10.8990704,33.8755491 C11.1055808,33.8755491 11.2813745,33.9412355 11.4212534,34.0709543 C11.5620775,34.2117783 11.6317806,34.3996224 11.6317806,34.6323601 L11.6317806,39.1952002 C11.6317806,39.4277016 11.5620775,39.6153094 11.425034,39.7525892 C11.2813745,39.8858522 11.1055808,39.9515386 10.8990704,39.9515386 C10.6920875,39.9515386 10.51653,39.8858522 10.3768874,39.7561334 C10.2360634,39.6153094 10.1663602,39.4277016 10.1663602,39.1952002 L10.1663602,34.6323601 C10.1663602,34.3996224 10.2360634,34.2117783 10.3731069,34.0744985 C10.51653,33.9412355 10.6920875,33.8755491 10.8990704,33.8755491 Z M8.2545087,37.9740243 C8.2545087,37.811935 8.19921873,37.6869418 8.08462201,37.5917202 C7.95443067,37.4823217 7.77438385,37.4293945 7.53314002,37.4293945 L6.93227511,37.4293945 L6.93227511,38.5826866 L7.62954304,38.5826866 C7.81785972,38.5826866 7.96813502,38.5281054 8.07611586,38.4203609 C8.19543822,38.3071818 8.2545087,38.1578517 8.2545087,37.9740243 Z M9.14978088,36.5638939 C9.55973,36.8953974 9.76789437,37.375286 9.76789437,37.9900915 C9.76789437,38.5845768 9.58075909,39.0597397 9.21239559,39.4025848 C8.85442848,39.7347972 8.37052312,39.9035025 7.77438385,39.9035025 L6.24020538,39.9035025 C6.02707909,39.9035025 5.84443317,39.8387612 5.69699325,39.711169 C5.54553655,39.5696361 5.46732723,39.3810832 5.46732723,39.1627587 L5.46732723,34.6322892 C5.46732723,34.3993153 5.5370304,34.2114711 5.67431019,34.0744276 C5.81749703,33.9414009 5.99305449,33.8754782 6.20003745,33.8754782 C6.40678413,33.8754782 6.58234159,33.9414009 6.7219842,34.0708834 C6.86257194,34.2114711 6.93227511,34.3993153 6.93227511,34.6322892 L6.93227511,36.1085786 L7.62954304,36.1085786 C8.26774049,36.1085786 8.77929084,36.2619256 9.14978088,36.5638939 Z M15.7232383,33.9240106 C15.926677,33.9240106 16.0894752,33.9927686 16.2203754,34.1343015 C16.3392252,34.2630751 16.3997134,34.4223291 16.3997134,34.608283 C16.3997134,34.791874 16.3477314,34.9428582 16.2404594,35.0697416 C16.122791,35.2169452 15.9479424,35.2927917 15.7232383,35.2927917 L14.9780051,35.2927917 L14.9780051,39.1952238 C14.9780051,39.4277252 14.9083019,39.615333 14.7712584,39.7526128 C14.6278353,39.8856396 14.4522778,39.9515622 14.2452949,39.9515622 C14.0383119,39.9515622 13.8627545,39.8856396 13.7231119,39.7561571 C13.5822878,39.615333 13.512821,39.4277252 13.512821,39.1952238 L13.512821,35.2927917 L12.7673515,35.2927917 C12.5426474,35.2927917 12.3677988,35.2169452 12.2480039,35.0671425 C12.1430947,34.9428582 12.0908764,34.791874 12.0908764,34.608283 C12.0908764,34.4223291 12.1513646,34.2630751 12.2702144,34.1343015 C12.4011145,33.9927686 12.5639128,33.9240106 12.7673515,33.9240106 L15.7232383,33.9240106 Z M18.2750357,35.7060488 C18.0418254,36.022194 17.9234482,36.4285989 17.9234482,36.9134493 C17.9234482,37.4110591 18.0389901,37.8200631 18.2674747,38.1300649 C18.5167521,38.4672392 18.8558166,38.6312189 19.3033346,38.6312189 C19.7508525,38.6312189 20.0899171,38.4672392 20.3394308,38.1298286 C20.5676791,37.8200631 20.683221,37.4110591 20.683221,36.9134493 C20.683221,36.4285989 20.5648437,36.022194 20.3313972,35.7055762 C20.0759764,35.3629674 19.7397473,35.1963887 19.3033346,35.1963887 C18.8666856,35.1963887 18.5304564,35.3629674 18.2750357,35.7060488 Z M19.3033346,33.8276075 C20.1388274,33.8276075 20.8389308,34.1340652 21.3837968,34.7380018 C21.9305532,35.3348499 22.1968429,36.046531 22.1968429,36.9134493 C22.1968429,37.7803677 21.9286629,38.5178035 21.4003366,39.1054367 C20.8561793,39.6989768 20.1508778,40 19.3033346,40 C18.4609896,40 17.7585234,39.6989768 17.2155476,39.1063818 C16.6810779,38.5213478 16.4098263,37.7836756 16.4098263,36.9134493 C16.4098263,36.0349532 16.6810779,35.297281 17.2160202,34.7207532 C17.7580509,34.1283944 18.460517,33.8276075 19.3033346,33.8276075 Z M24.3135981,36.1889854 L24.8102627,36.1889854 C24.9751874,36.1889854 25.0975815,36.1466909 25.1954022,36.0557224 C25.2877884,35.9692432 25.3307917,35.8513385 25.3307917,35.6845235 C25.3307917,35.5415729 25.2861344,35.4411531 25.1857146,35.3593996 C25.088839,35.2821354 24.9657362,35.2443303 24.8102627,35.2443303 L24.3135981,35.2443303 L24.3135981,36.1889854 Z M25.7563355,38.0142632 C25.7563355,37.7791627 25.6745819,37.5098013 25.0352031,37.5098013 L24.3135981,37.5098013 L24.3135981,38.5827574 L25.1313698,38.5827574 C25.3196865,38.5827574 25.467599,38.5331382 25.5836134,38.4305919 C25.6991552,38.3341889 25.7563355,38.1947825 25.7563355,38.0142632 Z M26.2444939,36.6090946 C26.4881005,36.6934473 26.7019357,36.8359252 26.8824551,37.0351109 C27.1392935,37.3186492 27.2697211,37.6534607 27.2697211,38.0303303 C27.2697211,38.625997 27.081877,39.0938352 26.711387,39.4208494 C26.3569641,39.7407751 25.8740039,39.9035734 25.2759743,39.9035734 L23.6212921,39.9035734 C23.4084021,39.9035734 23.2257561,39.8385958 23.0780799,39.7110036 C22.9268595,39.569707 22.8486502,39.381154 22.8486502,39.1628295 L22.8486502,34.6564609 C22.8486502,34.4298665 22.9218976,34.2465117 23.0665021,34.1113585 C23.2115792,33.9861291 23.3939889,33.9239869 23.6132585,33.9239869 L25.1554705,33.9239869 C25.6181105,33.9239869 26.0070306,34.0652835 26.311598,34.3433873 C26.6322325,34.6292884 26.7957396,35.0080484 26.7957396,35.4676167 C26.7957396,35.964045 26.6104946,36.3465854 26.2444939,36.6090946 Z M30.7716554,37.4100903 L30.1937098,35.6077319 L29.6034776,37.4100903 L30.7716554,37.4100903 Z M32.8058064,39.1521969 L32.8100595,39.1767702 C32.8173842,39.2214275 32.8232913,39.2594689 32.8232913,39.2911306 C32.8232913,39.4813376 32.7524067,39.6429544 32.6127641,39.7722006 C32.4842267,39.8910504 32.3247364,39.9515386 32.1387825,39.9515386 C31.7786889,39.9515386 31.533192,39.7755086 31.4282828,39.4428236 L31.2163379,38.7788714 L29.1729719,38.7788714 L28.9610271,39.4357352 C28.8551728,39.7726732 28.612275,39.9515386 28.2590335,39.9515386 C28.0728434,39.9515386 27.9036655,39.8865611 27.7562256,39.7589688 C27.6113848,39.6337394 27.5345931,39.4610173 27.5345931,39.2592326 C27.5345931,39.1904745 27.544517,39.1217165 27.5636558,39.0546124 L27.6045326,38.9357626 L29.2133762,34.5791967 C29.4040557,34.079933 29.7341415,33.8275839 30.1951275,33.8275839 C30.6672188,33.8275839 31.0067559,34.0882029 31.1773514,34.5815595 L32.7512253,38.9499395 C32.7750897,39.0052295 32.79541,39.079422 32.8058064,39.1521969 Z M34.946048,35.4448391 C34.8366495,35.5412421 34.7813595,35.6841927 34.7813595,35.8692014 C34.7813595,36.0478305 34.8378309,36.1917262 34.9493559,36.2968717 C35.0615898,36.402726 35.2085572,36.4539992 35.3982916,36.4539992 L36.0955595,36.4539992 L36.0955595,35.2926735 L35.3982916,35.2926735 C35.2099749,35.2926735 35.0620624,35.3422927 34.946048,35.4448391 Z M36.8119663,33.9238924 C37.2946902,33.9238924 37.5605074,34.192545 37.5605074,34.6804671 L37.5605074,39.1951057 C37.5605074,39.4278433 37.4910405,39.6154512 37.3535244,39.7524947 C37.2105739,39.8857577 37.0350164,39.9514441 36.8280334,39.9514441 C36.6212868,39.9514441 36.4457293,39.8857577 36.3060867,39.7560389 C36.1652627,39.6154512 36.0955595,39.4278433 36.0955595,39.1951057 L36.0955595,37.7939539 L34.5268839,39.6955508 C34.4479657,39.7964431 34.3338415,39.8559862 34.2551597,39.8916647 C33.9368879,40.0180756 33.6455523,39.9453007 33.4317172,39.7172887 C33.2982179,39.5745744 33.2278059,39.3966541 33.2278059,39.202903 C33.2278059,39.0516825 33.2956188,38.8988081 33.4234473,38.7610558 L34.6310842,37.4681211 C34.2665012,37.3776252 33.9744567,37.2261685 33.7426642,37.0083165 C33.4277004,36.7106013 33.2679738,36.3273521 33.2679738,35.8692014 C33.2679738,34.5786296 33.9848531,33.9238924 35.3982916,33.9238924 L36.8119663,33.9238924 Z M44.1947365,33.9240106 C44.3981752,33.9240106 44.5609734,33.9927686 44.6918736,34.1343015 C44.8107234,34.2630751 44.8712116,34.4223291 44.8712116,34.608283 C44.8712116,34.791874 44.8192296,34.9428582 44.7119576,35.0697416 C44.5942892,35.2169452 44.4194406,35.2927917 44.1947365,35.2927917 L43.4495033,35.2927917 L43.4495033,39.1952238 C43.4495033,39.4277252 43.3798001,39.615333 43.2427566,39.7526128 C43.0993335,39.8856396 42.923776,39.9515622 42.7167931,39.9515622 C42.5098101,39.9515622 42.3342527,39.8856396 42.1946101,39.7561571 C42.053786,39.615333 41.9843192,39.4277252 41.9843192,39.1952238 L41.9843192,35.2927917 L41.2388497,35.2927917 C41.0141456,35.2927917 40.839297,35.2169452 40.7195021,35.0671425 C40.6145929,34.9428582 40.5623746,34.791874 40.5623746,34.608283 C40.5623746,34.4223291 40.6228628,34.2630751 40.7417126,34.1343015 C40.8726127,33.9927686 41.035411,33.9240106 41.2388497,33.9240106 L44.1947365,33.9240106 Z M48.1386124,38.5347213 C48.3600086,38.5347213 48.5376926,38.6053696 48.6674113,38.744776 C48.7827169,38.8808743 48.838952,39.0389469 48.838952,39.2189938 C48.838952,39.4023485 48.7803541,39.5545141 48.6598503,39.6849417 C48.5350935,39.8288374 48.3588272,39.9035025 48.1386124,39.9035025 L46.0661837,39.9035025 C45.8589645,39.9035025 45.6805717,39.8347444 45.5354946,39.6995912 C45.39089,39.5649105 45.3176426,39.3869902 45.3176426,39.170556 L45.3176426,34.752793 C45.3176426,34.2183233 45.5862952,33.923916 46.0742173,33.923916 L48.0660739,33.923916 C48.2881789,33.923916 48.4663354,33.9948006 48.5953454,34.1342069 C48.7101784,34.2695965 48.7666498,34.4276691 48.7666498,34.6084247 C48.7666498,34.7905981 48.7080518,34.9429999 48.5877843,35.0739001 C48.4627912,35.2180321 48.2862886,35.2926972 48.0660739,35.2926972 L46.7825905,35.2926972 L46.7825905,36.2052179 L47.9699071,36.2052179 C48.1934298,36.2052179 48.3791474,36.2777565 48.5069759,36.4150363 C48.626062,36.544755 48.6863139,36.7040091 48.6863139,36.8894904 C48.6863139,37.0726088 48.6274797,37.2247744 48.5072122,37.3554383 C48.3715864,37.5005154 48.191067,37.5739991 47.9699071,37.5739991 L46.7825905,37.5739991 L46.7825905,38.5347213 L48.1386124,38.5347213 Z M54.1698028,38.7719247 C54.2217848,38.8444633 54.2574634,38.9101497 54.2836907,38.980798 C54.3172427,39.0918505 54.3321285,39.1802199 54.3321285,39.2593743 C54.3321285,39.4647033 54.2614802,39.6343537 54.1218376,39.7638362 C53.9760516,39.8909559 53.8033296,39.9514441 53.591621,39.9514441 C53.3484869,39.9514441 53.1400862,39.8411004 52.9883932,39.632936 L51.776267,37.9475371 L50.5641408,39.6324635 C50.4124478,39.8411004 50.2038109,39.9514441 49.9609131,39.9514441 C49.7475505,39.9514441 49.571993,39.8883568 49.4384938,39.7635999 C49.2948343,39.6395519 49.2201693,39.4687201 49.2201693,39.2593743 C49.2201693,39.1695872 49.2402532,39.0722391 49.277822,38.9779626 C49.3002688,38.9181833 49.3295678,38.8461173 49.380841,38.7740513 L50.9157283,36.7122553 L49.6712314,35.0228396 C49.5698665,34.8938297 49.5174119,34.7480437 49.5174119,34.592334 C49.5174119,34.3716466 49.592077,34.1953803 49.7390443,34.0680244 C49.8756153,33.9413773 50.051409,33.8754546 50.2579194,33.8754546 C50.5123951,33.8754546 50.7300107,33.9980849 50.8876107,34.2296412 L51.776267,35.4909141 L52.6658684,34.2282235 C52.8222871,33.9980849 53.040139,33.8754546 53.2943783,33.8754546 C53.5013613,33.8754546 53.6769187,33.9413773 53.8165614,34.0708598 C53.9602208,34.1953803 54.0351221,34.3716466 54.0351221,34.592334 C54.0351221,34.7480437 53.9824313,34.8938297 53.8787035,35.0259113 L52.6368058,36.7122553 L54.1698028,38.7719247 Z M59.3052485,33.8755491 C59.5119951,33.8755491 59.6875526,33.9412355 59.8271952,34.0709543 C59.9680192,34.211542 60.0377224,34.3993861 60.0377224,34.6323601 L60.0377224,39.1952002 C60.0377224,39.4279379 59.9680192,39.6155457 59.8307395,39.7525892 C59.6875526,39.8858522 59.5119951,39.9515386 59.3052485,39.9515386 C59.0982655,39.9515386 58.9227081,39.8858522 58.7830654,39.7561334 C58.6422414,39.6155457 58.5725383,39.4279379 58.5725383,39.1952002 L58.5725383,37.5738337 L56.3103752,37.5738337 L56.3103752,39.1952002 C56.3103752,39.4279379 56.240672,39.6155457 56.1033922,39.7525892 C55.9604417,39.8858522 55.7848842,39.9515386 55.5779013,39.9515386 C55.3711546,39.9515386 55.1953608,39.8858522 55.0559545,39.7561334 C54.9151305,39.6155457 54.8454273,39.4279379 54.8454273,39.1952002 L54.8454273,34.6323601 C54.8454273,34.3993861 54.9151305,34.211542 55.0524103,34.0744985 C55.1953608,33.9412355 55.3711546,33.8755491 55.5779013,33.8755491 C55.7848842,33.8755491 55.9604417,33.9412355 56.1000843,34.0709543 C56.240672,34.211542 56.3103752,34.3993861 56.3103752,34.6323601 L56.3103752,36.2050525 L58.5725383,36.2050525 L58.5725383,34.6323601 C58.5725383,34.3993861 58.6422414,34.211542 58.7795212,34.0744985 C58.9227081,33.9412355 59.0982655,33.8755491 59.3052485,33.8755491 Z M65.4065673,33.8755491 C65.613314,33.8755491 65.7888715,33.9412355 65.9285141,34.0709543 C66.0693381,34.211542 66.1390413,34.3993861 66.1390413,34.6323601 L66.1390413,39.1952002 C66.1390413,39.4279379 66.0693381,39.6155457 65.9320583,39.7525892 C65.7888715,39.8858522 65.613314,39.9515386 65.4065673,39.9515386 C65.1995844,39.9515386 65.0240269,39.8858522 64.8843843,39.7561334 C64.7435603,39.6155457 64.6738571,39.4279379 64.6738571,39.1952002 L64.6738571,36.5580577 L62.2881186,39.6361022 C62.1265018,39.845448 61.9216454,39.9515386 61.6792201,39.9515386 C61.4724735,39.9515386 61.2966797,39.8858522 61.1572734,39.7561334 C61.0164494,39.6155457 60.9467462,39.4279379 60.9467462,39.1952002 L60.9467462,34.6323601 C60.9467462,34.3993861 61.0164494,34.211542 61.1537291,34.0744985 C61.2966797,33.9412355 61.4724735,33.8755491 61.6792201,33.8755491 C61.8862031,33.8755491 62.0617605,33.9412355 62.2014032,34.0709543 C62.3419909,34.211542 62.4116941,34.3993861 62.4116941,34.6323601 L62.4116941,37.3061263 L64.7971963,34.1914581 C64.959522,33.9816397 65.1646147,33.8755491 65.4065673,33.8755491 Z M69.6905711,36.7233842 L71.4574873,38.5666194 C71.7048744,38.8232216 71.831049,39.0590309 71.831049,39.2671953 C71.831049,39.4817392 71.749768,39.6561153 71.5898051,39.7858341 C71.4499263,39.8961777 71.2769679,39.9514677 71.074238,39.9514677 C70.8658374,39.9514677 70.628374,39.8104074 70.3687002,39.5327761 L68.5134146,37.5265064 L68.5134146,39.2430945 C68.5134146,39.4387359 68.4437114,39.6076775 68.3064317,39.744721 C68.1691519,39.8820008 67.992413,39.9514677 67.7809407,39.9514677 C67.5739577,39.9514677 67.3984003,39.8857813 67.2587576,39.7560626 C67.119115,39.6268163 67.0482305,39.4543305 67.0482305,39.2430945 L67.0482305,34.6001549 C67.0482305,34.399079 67.1179336,34.2275383 67.2552134,34.0904948 C67.3870587,33.9489619 67.564979,33.8754782 67.7809407,33.8754782 C67.9876873,33.8754782 68.1632448,33.9414009 68.3028874,34.0708834 C68.44253,34.2001296 68.5134146,34.3780499 68.5134146,34.6001549 L68.5134146,36.0067411 L70.2644999,34.1412954 C70.319081,34.0791533 70.3871302,34.0226819 70.4752634,33.9678645 C70.7701432,33.80483 71.0929043,33.856812 71.3232791,34.0708834 C71.4737907,34.2114711 71.5498735,34.3841932 71.5498735,34.5838514 C71.5498735,34.7903618 71.4125937,35.0240446 71.1181864,35.3186882 L69.6905711,36.7233842 Z M75.41072,37.4100903 L74.8327744,35.6077319 L74.2425422,37.4100903 L75.41072,37.4100903 Z M77.4491241,39.1767702 C77.4564488,39.2214275 77.4623559,39.2594689 77.4623559,39.2911306 C77.4623559,39.4813376 77.3914713,39.6429544 77.2518287,39.7722006 C77.1232913,39.8910504 76.963801,39.9515386 76.7778472,39.9515386 C76.4177535,39.9515386 76.1722566,39.7755086 76.0673474,39.4428236 L75.8556388,38.7788714 L73.8120366,38.7788714 L73.6000917,39.4357352 C73.4942374,39.7726732 73.2513396,39.9515386 72.8980981,39.9515386 C72.711908,39.9515386 72.5427301,39.8865611 72.3952902,39.7589688 C72.2502131,39.6335031 72.1736578,39.460781 72.1736578,39.2592326 C72.1736578,39.1904745 72.1835816,39.1217165 72.2027204,39.0546124 L72.2428884,38.9371803 L73.8524408,34.5791967 C74.0431203,34.079933 74.3732061,33.8275839 74.8341921,33.8275839 C75.3062834,33.8275839 75.6458205,34.0882029 75.8166523,34.5815595 L77.3902899,38.9499395 C77.4141543,39.0052295 77.4344746,39.079422 77.444871,39.1521969 L77.4491241,39.1767702 Z" fill="#FC8507"></path>
                </g>
            </g>
        </g>
    </g>
</svg>
